# xmcd
#
# Track frame offsets:
#	150
#	25272
#	49211
#	78681
#	98870
#	118666
#	131082
#	157226
#	180867
#	201733
#
# Disc length: 3138 seconds
#
# Revision: 0
# Processed by: cddbd v1.5.2PL0 Copyright (c) Steve Scherf et al.
# Submitted via: audiograbber 1.83.01
#
DISCID=8f0c400a
DTITLE=Remember Rory - Still At Work
DYEAR=2008
DGENRE=Irish Blues
TTITLE0=Cradle Rock
TTITLE1=Used To Be
TTITLE2=I fall Apart
TTITLE3=Tattoo´d Lady
TTITLE4=Heavens Gate
TTITLE5=Whats Going On
TTITLE6=Moonchild Mondkind
TTITLE7=For The Last Time
TTITLE8=Shadow Play
TTITLE9=Wild Country
EXTD=Peter Knott   Guitars\nStefan Kugie Kugler  Bass\nAnselm Gayler   Drums
EXTT0=
EXTT1=
EXTT2=
EXTT3=
EXTT4=
EXTT5=
EXTT6=
EXTT7=
EXTT8=
EXTT9=
PLAYORDER=
